<svg id="レイヤー_1" data-name="レイヤー 1" xmlns="http://www.w3.org/2000/svg" xmlns:xlink="http://www.w3.org/1999/xlink" width="103.74" height="114.52" viewBox="0 0 103.74 114.52"><defs><style>.cls-1{fill:none;}.cls-2{clip-path:url(#clip-path);}.cls-3{opacity:0.5;}.cls-4{clip-path:url(#clip-path-2);}.cls-5{fill:#f18e47;}</style><clipPath id="clip-path" transform="translate(-152.06 -142.9)"><rect class="cls-1" x="148.28" y="144.33" width="111.3" height="111.66" transform="translate(-40.59 348.02) rotate(-75.63)"/></clipPath><clipPath id="clip-path-2" transform="translate(-152.06 -142.9)"><rect class="cls-1" x="121.56" y="46.62" width="176.95" height="259.38" transform="translate(-12.89 336.01) rotate(-75.63)"/></clipPath></defs><g class="cls-2"><g class="cls-3"><g class="cls-4"><path class="cls-5" d="M191.93,200.46c-72,1.78-28.27,73.62,6.25,10.26-34.52,63.36,49.47,61.27,12-.3,37.48,61.57,77.75-12.35,5.76-10.56,72-1.79,28.27-73.61-6.25-10.25,34.52-63.36-49.47-61.28-12,.29-37.47-61.57-77.74,12.34-5.75,10.56" transform="translate(-152.06 -142.9)"/></g></g></g></svg>